<svg xmlns="http://www.w3.org/2000/svg" viewBox="0 0 400 100"><path d="M247.61,91.81h6.48v-5.5h-6.48Zm0-6.4h6.48V79.85c0-.08-.05-.11-.14-.11h-6.34Zm-.91.9h-6.54v5.5h6.54Zm0-6.57h-6.41c-.1,0-.14,0-.13.13v5.54h6.54Zm8-.9q.33,0,.33.3V94.08h-.9V92.72H240.16v1.36h-.91v-15a.26.26,0,0,1,.23-.3h7.22V76.25h.91v2.59Z" fill="#545871" fill-rule="evenodd"/><path d="M258.5,89.09v-.92h7.86V86.25h.91v1.94h7.86v.9h-7.54l.08.11c1.63,2.16,4.27,3.39,7.89,3.7l-.26.95a10.47,10.47,0,0,1-8.28-4,4,4,0,0,1-.23.51c-1.1,1.84-4,3-8.59,3.35l-.16-1a20.24,20.24,0,0,0,6.69-1.48,3.18,3.18,0,0,0,1.54-2Zm17.08-4.31v.91H257.93v-.91h8.41V82.61H259v-.92h7.33V79.58h-7.88v-.9h5a11.24,11.24,0,0,0-1.18-1.86l.78-.5a12.62,12.62,0,0,1,1.44,2.36h4.84c.47-.74,1-1.54,1.46-2.4l.74.5-1.13,1.9h4.69v.9h-7.91v2.11h7.22v.92h-7.22v2.17Z" fill="#545871" fill-rule="evenodd"/><path d="M286.94,90.4a.28.28,0,0,1,.14-.09,10.36,10.36,0,0,0,3.69-5.62H284a.32.32,0,0,0-.13.15,20.78,20.78,0,0,1-2.63,2.92c-.12.11-.17.21-.15.31a.18.18,0,0,0,.18.19Zm-.88-14.1h.9v2h8.11c.13,0,.18.1.17.32a12,12,0,0,1-.85,3.43l-.82-.35c.21-.68.4-1.46.59-2.36,0-.08,0-.13-.11-.13H279.2a.06.06,0,0,0-.08.06v2.84h-.9V78.46a.16.16,0,0,1,.13-.17h7.71Zm-8.42,8.44v-.92h5.88a20.33,20.33,0,0,0,1.61-3l.77.5a24.53,24.53,0,0,1-1.32,2.54h10.68v.92H291.7A11.09,11.09,0,0,1,288,90.87l6.8,2.55-.54.76-7.09-2.75q-3.27,2.23-9.07,2.36l-.22-.93a26,26,0,0,0,5.56-.66A14.6,14.6,0,0,0,286,91l-5.88-2.25-.26-.93a33.94,33.94,0,0,0,3-3.16Z" fill="#545871" fill-rule="evenodd"/><path d="M334.39,83.35a14.33,14.33,0,0,1,.4,2.25l-.66.06a16.22,16.22,0,0,0-.4-2.19Zm-4.18-1.18-.17-.65.62-.06a13.62,13.62,0,0,0,1-1.16A8.75,8.75,0,0,0,330,78.62l.47-.53a1.18,1.18,0,0,1,.32.27,20.92,20.92,0,0,0,1.15-2.2l.65.38a23.9,23.9,0,0,1-1.3,2.31c.24.25.53.56.84.92a11.27,11.27,0,0,0,1.22-2.1l.68.25a9.87,9.87,0,0,1-2.28,3.42l1.81-.24-.27-.63.68-.27a17.68,17.68,0,0,1,.87,2.18l-.69.22c-.09-.28-.19-.56-.31-.84l-1,.14v4.19h-.9V82Zm.79,1.28a14.4,14.4,0,0,1-.44,2.34l-.64-.17a17.74,17.74,0,0,0,.42-2.29Zm-4.28-.19h0V85h1.65V83.3h0Zm2.48,2.47h-3.31c-.07,0-.1,0-.1-.11V82.68c0-.06,0-.1.1-.09h3.31c.07,0,.11,0,.11.09v2.94a.12.12,0,0,1-.09.11Zm.19-4.7v.68h-3.71V81Zm0-1.62v.7h-3.71v-.68Zm.07-3.09V77h-4v-.67Zm.46,1.55v.67h-5v-.67Zm-5.23,5.69a17.12,17.12,0,0,1,.43,1.79l-.67.09a11.29,11.29,0,0,0-.4-1.72ZM321.81,92,321,91.6l.85-2.65a.25.25,0,0,1,.31-.11h9.78a.14.14,0,0,0,.16-.15v-.92c0-.07,0-.11-.12-.11H321.41V87H332.8c.14,0,.22.06.22.19v2.15a.18.18,0,0,1-.15.19H322.75a.32.32,0,0,0-.23.38l-.29.88h11.09c.23,0,.34.08.32.21a4.3,4.3,0,0,1-.9,2.64l-.17.18c-.7.53-3.27.53-7.69,0v-1l2,.29c3,.27,4.74.23,5.17-.14a2.53,2.53,0,0,0,.53-1.5s0-.06-.09-.06H322ZM320.6,82.5l-.17-.65.63-.1a17.93,17.93,0,0,0,1.25-1.52,7.74,7.74,0,0,0-1.76-1.57l.34-.58a2.44,2.44,0,0,1,.45.32q.59-1.09,1.08-2.25l.64.36a25.88,25.88,0,0,1-1.21,2.34c.24.21.52.47.83.79a9.46,9.46,0,0,0,.88-1.81l.71.21a10.3,10.3,0,0,1-2.15,3.54l2-.31a6.19,6.19,0,0,0-.28-.58l.68-.33a9.79,9.79,0,0,1,.83,2l-.71.29-.25-.72-1.13.18v4.13h-.91v-4Zm.89,1.22-.27,1a8.92,8.92,0,0,1-.37,1.14l-.61-.23c.06-.19.27-.88.61-2Zm-3.86-7a13.4,13.4,0,0,1,2.17,1.73l-.6.72a13.06,13.06,0,0,0-2.14-1.71Zm2,9.5a16.85,16.85,0,0,1-2,7.27l-.91-.29a15.74,15.74,0,0,0,2-7.05Zm-2.26-5a12.53,12.53,0,0,1,2,1.91l-.63.65a13.39,13.39,0,0,0-2-1.89Z" fill="#19aab8" fill-rule="evenodd"/><path d="M344.14,80.36v1.76h8.28V80.36Zm8.32-.91V77.69h-8.28v1.76Zm.66,3.62h-9.66c-.15,0-.22-.09-.22-.25V77c0-.15.07-.23.22-.23h9.66c.16,0,.25.08.25.23v5.85a.23.23,0,0,1-.21.25ZM342,93.79l-.78-.46a12,12,0,0,0,2.2-4.16V89a14.57,14.57,0,0,0,.32-1.75l.9.13a15.3,15.3,0,0,1-.35,1.79,8.82,8.82,0,0,0,1,2.76,2.43,2.43,0,0,0,2,.82h.32v-7h-5.19v-.91h11.69v.91h-5.55v2.57h5.53v.91h-5.53v3.49h5.88l-.23.91h-6.53a7,7,0,0,1-1.64-.23c-.94-.25-1.67-1.18-2.17-2.78A25.68,25.68,0,0,1,342,93.79Zm-3.11-13.1h-2.19v-.91h2.19v-3.4h.91v3.38H342v.91h-2.15v4.25c.7-.34,1.25-.62,1.63-.85l.42.79c-.13.07-.81.44-2,1v6.77a1.3,1.3,0,0,1-.19.66,1,1,0,0,1-.37.32,4.07,4.07,0,0,1-2.44-.15l-.06-1a4.32,4.32,0,0,0,2,.15.29.29,0,0,0,.17-.25V86.33c-.75.33-1.4.59-1.93.79l-.41-.83c.68-.26,1.46-.58,2.34-1Z" fill="#545871" fill-rule="evenodd"/><path d="M369.92,88.17A30.46,30.46,0,0,1,374,93.41l-.73.55a33.47,33.47,0,0,0-4-5.22Zm-.24-2.49V80.51h-5.4v5.13Zm-6.31-5.13h-2.49v-.91h2.49V76.25h.91V79.6h5.4V76.17h.9V79.6h2.69v.91h-2.69v5.13H374v.9H360.26v-.9h3.11Zm1.1,7.83A15.48,15.48,0,0,1,360.78,94l-.75-.54a13.38,13.38,0,0,0,3.6-5.44ZM356.74,85l-.55-.74a19.65,19.65,0,0,0,3.51-8l.86.25A24.54,24.54,0,0,1,359,81.29V94h-.9V83A20.08,20.08,0,0,1,356.74,85Z" fill="#545871" fill-rule="evenodd"/><path d="M312.17,91.9V86.35c0-.08-.05-.11-.14-.11H300.14c-.1,0-.14,0-.13.13V91.9ZM300,94.21h-.91V85.64a.27.27,0,0,1,.25-.31.06.06,0,0,1,.06,0h13.33a.27.27,0,0,1,.32.23.11.11,0,0,1,0,.08v8.57h-.89V92.8H300Zm-2.59-11.4-.23-.91,1.68-.09a44.7,44.7,0,0,0,4-5.56l.74.51a46.76,46.76,0,0,1-3.55,5l11.8-.74a37.46,37.46,0,0,0-2.95-2.82l.64-.61A57.66,57.66,0,0,1,315,83.1l-.7.56a20.81,20.81,0,0,0-1.67-1.89Z" fill="#19aab8" fill-rule="evenodd"/><path d="M26.8,24.5c-.8-5.7-4.1-9.2-9.2-9.2-6.8,0-8.7,4.5-8.7,7.8,0,3.6,2.3,5.9,7,7.7L22,33.1c7.7,2.9,11.2,7.3,11.2,13.2,0,7.8-6.2,13.4-15.4,13.4C9,59.6,2.8,55,2,45.4H8.1c.5,5.3,3.2,8.9,9.9,8.9,5.3,0,9.1-3.4,9.1-7.6,0-3.7-3.1-6.1-7.5-7.9l-6.1-2.4c-7.2-2.8-10.7-7-10.7-13.2C2.8,15,9.7,10,17.6,10s14.2,4.7,14.9,14.5Z" fill="#545871"/><path d="M72.4,10.8h6.1V58.9H72.4V37.1H47.3V58.9H41.2V10.8h6.1V31.4H72.4Z" fill="#545871"/><path d="M112.6,10c16.3,0,25.5,12.9,25.5,24.8s-9.2,24.8-25.5,24.8S87.1,46.7,87.1,34.8,96.2,10,112.6,10Zm0,43.9A19.1,19.1,0,1,0,93.5,34.8,18.94,18.94,0,0,0,112.6,53.9Z" fill="#545871"/><path d="M146.7,10.8H160c10.2,0,16.3,7.8,16.3,15.9S170.2,42.5,160,42.5h-7.2V58.9h-6.1Zm12,26.3c7.3,0,11.5-3.5,11.5-10.5S166,16,158.7,16h-6V37.1Z" fill="#545871"/><path d="M252.7,20.9A18.45,18.45,0,0,0,240.3,16a19.1,19.1,0,0,0,0,38.2,18.14,18.14,0,0,0,12.8-5.1l3.9,4.4A25.77,25.77,0,0,1,240.3,60c-16.3,0-25.5-12.9-25.5-24.8s9.2-24.8,25.5-24.8a25.37,25.37,0,0,1,16.5,6.1Z" fill="#545871"/><path d="M287.8,10.3c16.3,0,25.5,12.9,25.5,24.8s-9.2,24.8-25.5,24.8S262.3,47,262.3,35.1,271.5,10.3,287.8,10.3Zm0,43.9a19.1,19.1,0,1,0-19.1-19.1A19,19,0,0,0,287.8,54.2Z" fill="#545871"/><path d="M367.1,11h6.1V59.1h-6.1V23.5H367L347.6,59.6,328.2,23.5H328V59.1h-6V11h6.1l19.6,36.3Z" fill="#545871"/><path d="M204.8,34.1a9.5,9.5,0,1,1-9.5-9.5A9.63,9.63,0,0,1,204.8,34.1Z" fill="#00a8ca"/><path d="M386.62,11.14h2.59l3.11,8.16,3.1-8.16H398V21.73h-1.59V12.52h-.05l-3.51,9.21h-1.09l-3.49-9.21h0v9.21h-1.61Zm-7.18,1.22h-3.33V11.14h8.26v1.22H381v9.37h-1.6Z" fill="#545871" fill-rule="evenodd"/></svg>